<svg width="16" height="16" viewBox="0 0 16 16" fill="none" xmlns="http://www.w3.org/2000/svg">
<path d="M7.99707 0.109009C12.3531 0.109078 15.8848 3.64065 15.8848 7.9967C15.8847 12.0054 12.8933 15.3127 9.02148 15.8151V9.72522H10.7393L10.9668 7.58069H9.02148L9.02441 6.50745C9.02444 5.94851 9.07798 5.6491 9.88086 5.64905H10.9551V3.50452H9.2373C7.17395 3.50452 6.4474 4.54444 6.44727 6.29358V7.58167H5.16113V9.7262H6.44727V15.7311C6.57187 15.7559 6.69759 15.7776 6.82422 15.7965C3.0244 15.23 0.109438 11.9542 0.109375 7.9967C0.109375 3.64061 3.64097 0.109009 7.99707 0.109009Z" fill="#2DB24A"/>
</svg>
